HIERARCHY
ROOT root
{
	OFFSET 0.000000 0.000000 0.000000
	CHANNELS 6 Xposition Yposition Zposition Zrotation Yrotation Xrotation
	JOINT lhip
	{
		OFFSET 0.058581 -0.082280 -0.017664
		CHANNELS 3 Zrotation Yrotation Xrotation
		JOINT lknee
		{
			OFFSET 0.043451 -0.386469 0.008037
			CHANNELS 3 Zrotation Yrotation Xrotation
			JOINT lankle
			{
				OFFSET -0.014790 -0.426874 -0.037428
				CHANNELS 3 Zrotation Yrotation Xrotation
				JOINT ltoe
				{
					OFFSET 0.041054 -0.060286 0.122042
					CHANNELS 3 Zrotation Yrotation Xrotation
					End Site
					{
						OFFSET 0.000000 0.000000 0.000000
					}
				}
			}
		}
	}
	JOINT rhip
	{
		OFFSET -0.060310 -0.090513 -0.013543
		CHANNELS 3 Zrotation Yrotation Xrotation
		JOINT rknee
		{
			OFFSET -0.043257 -0.383688 -0.004843
			CHANNELS 3 Zrotation Yrotation Xrotation
			JOINT rankle
			{
				OFFSET 0.019056 -0.420046 -0.034562
				CHANNELS 3 Zrotation Yrotation Xrotation
				JOINT rtoe
				{
					OFFSET -0.034840 -0.062106 0.130323
					CHANNELS 3 Zrotation Yrotation Xrotation
					End Site
					{
						OFFSET 0.000000 0.000000 0.000000
					}
				}
			}
		}
	}
	JOINT lowerback
	{
		OFFSET 0.004439 0.124404 -0.038385
		CHANNELS 3 Zrotation Yrotation Xrotation
		JOINT upperback
		{
			OFFSET 0.004488 0.137956 0.026820
			CHANNELS 3 Zrotation Yrotation Xrotation
			JOINT chest
			{
				OFFSET -0.002265 0.056032 0.002855
				CHANNELS 3 Zrotation Yrotation Xrotation
				JOINT lowerneck
				{
					OFFSET -0.013390 0.211636 -0.033468
					CHANNELS 3 Zrotation Yrotation Xrotation
					JOINT upperneck
					{
						OFFSET 0.010113 0.088937 0.050410
						CHANNELS 3 Zrotation Yrotation Xrotation
						End Site
						{
							OFFSET 0.000000 0.000000 0.000000
						}
					}
				}
				JOINT lclavicle
				{
					OFFSET 0.071702 0.114000 -0.018898
					CHANNELS 3 Zrotation Yrotation Xrotation
					JOINT lshoulder
					{
						OFFSET 0.122921 0.045205 -0.019046
						CHANNELS 3 Zrotation Yrotation Xrotation
						JOINT lelbow
						{
							OFFSET 0.255332 -0.015649 -0.022946
							CHANNELS 3 Zrotation Yrotation Xrotation
							JOINT lwrist
							{
								OFFSET 0.265709 0.012698 -0.007375
								CHANNELS 3 Zrotation Yrotation Xrotation
								End Site
								{
									OFFSET 0.000000 0.000000 0.000000
								}
							}
						}
					}
				}
				JOINT rclavicle
				{
					OFFSET -0.082954 0.112472 -0.023707
					CHANNELS 3 Zrotation Yrotation Xrotation
					JOINT rshoulder
					{
						OFFSET -0.113228 0.046853 -0.008472
						CHANNELS 3 Zrotation Yrotation Xrotation
						JOINT relbow
						{
							OFFSET -0.260127 -0.014369 -0.031269
							CHANNELS 3 Zrotation Yrotation Xrotation
							JOINT rwrist
							{
								OFFSET -0.269108 0.006794 -0.006027
								CHANNELS 3 Zrotation Yrotation Xrotation
								End Site
								{
									OFFSET 0.000000 0.000000 0.000000
								}
							}
						}
					}
				}
			}
		}
	}
}
MOTION
Frames: 9
Frame Time: 0.033333
0.540248 0.231418 0.990938 87.515493 3.741815 96.856990 6.182685 5.100940 -3.485603 3.855381 -1.543259 -8.823353 -1.473593 11.514956 -1.895068 0.000000 -0.000000 0.000000 -1.175267 -2.344220 -8.385024 -1.132904 1.224082 0.391647 5.515014 -6.498217 -2.731864 0.000000 -0.000000 0.000000 0.781315 1.022905 0.692891 2.973750 -2.105683 -1.898690 0.319885 1.999088 -6.429500 -1.469075 -0.635339 1.121374 2.237741 -0.582793 -2.001068 -20.777445 6.050149 -5.971500 -62.576441 -3.172974 22.911465 8.424265 -10.233263 9.042617 -7.209592 -8.880824 10.170586 23.445847 -2.318867 -2.995135 53.472274 6.010033 15.955277 -4.612245 10.965606 3.677521 5.459292 3.757253 6.103486 
0.540315 0.231161 0.990476 87.441734 3.740084 96.751855 6.147053 5.100458 -3.304757 3.897708 -1.488195 -8.945891 -1.526651 11.564776 -1.825793 0.000000 -0.000000 0.000000 -1.194998 -2.348616 -8.241936 -1.145626 1.141682 0.302800 5.609523 -6.397399 -2.748657 0.000000 -0.000000 0.000000 0.910415 1.081968 0.494817 3.160278 -2.125028 -2.159550 0.411582 1.709537 -6.938978 -2.022618 -0.121569 3.244498 2.217677 -0.603076 -1.577797 -20.498296 5.220664 -5.026339 -62.887738 -2.487538 22.960239 8.921868 -9.928711 7.762483 -7.093018 -8.782733 9.694223 22.274615 -0.541573 -1.589808 54.463977 5.398618 16.453289 -5.215169 10.442000 2.611454 5.206653 3.920601 4.897950 
0.540469 0.230624 0.990486 87.452995 3.775531 96.786565 6.192600 5.131015 -3.332889 3.884645 -1.547304 -8.973393 -1.622118 11.609863 -1.773226 0.000000 -0.000000 0.000000 -1.099194 -2.293378 -8.134509 -1.207078 1.276599 0.049281 5.600942 -6.553439 -2.698293 0.000000 -0.000000 0.000000 0.951439 1.080570 0.526894 3.209892 -1.998118 -2.336313 0.481157 1.631099 -6.478763 -2.102366 -0.024507 2.591901 2.097352 -0.724463 -1.881254 -20.593577 5.636556 -5.399208 -62.561367 -2.561369 22.846006 8.618832 -10.257009 8.188994 -7.217134 -8.742392 9.550614 22.191950 -0.577831 -1.720497 54.358045 5.729181 16.442491 -4.959473 10.250898 2.702216 5.502676 3.751927 4.706795 
0.541164 0.230064 0.990356 87.650644 3.768753 97.162217 6.159956 5.059158 -3.772896 3.890410 -1.679860 -8.977702 -1.738362 11.687764 -1.759933 0.000000 -0.000000 0.000000 -0.876195 -2.189834 -8.181624 -1.466262 1.417317 -0.535205 5.397877 -6.826111 -2.766284 0.000000 -0.000000 0.000000 0.883868 0.954574 -0.158953 3.289137 -1.955686 -2.156860 0.537509 1.771365 -6.498438 -2.303782 0.015185 2.680938 2.069392 -0.896169 -1.941460 -20.552401 5.749320 -5.341189 -62.165717 -2.384849 22.930638 8.164702 -10.849151 8.395265 -7.061886 -8.087525 9.316345 22.114589 -0.178842 -1.399870 54.232430 5.897544 16.420690 -4.684102 9.509524 1.935216 5.757219 3.590990 3.696466 
0.541159 0.230044 0.990347 87.644045 3.781960 97.148179 6.171126 5.053013 -3.767734 3.890547 -1.701420 -8.969793 -1.740760 11.709224 -1.783335 0.000000 -0.000000 0.000000 -0.878573 -2.200562 -8.124635 -1.422500 1.444922 -0.627722 5.369998 -6.828250 -2.718840 0.000000 -0.000000 0.000000 0.914454 0.971672 -0.130689 3.284524 -1.944772 -2.175323 0.534263 1.809045 -6.492634 -2.308213 0.083631 2.690769 2.064016 -0.794110 -1.865946 -20.590338 5.745931 -5.370408 -62.100314 -2.356438 22.939851 8.155089 -10.850508 8.354016 -6.974099 -8.015550 9.310325 22.181826 -0.140788 -1.369800 54.138472 5.913992 16.400428 -4.616677 9.401524 1.836091 5.718033 3.587167 3.700107 
0.540771 0.230211 0.990503 87.520513 3.830529 97.198164 6.148163 5.037621 -3.864875 3.954140 -1.711287 -8.913000 -1.730746 11.821397 -1.807321 0.000000 -0.000000 0.000000 -0.843240 -1.988199 -8.248754 -1.438727 1.489805 -0.594728 5.390967 -6.950914 -2.652855 0.000000 -0.000000 0.000000 1.027193 1.038619 -0.051484 3.264593 -1.855548 -2.307288 0.489313 1.916409 -6.532516 -2.351668 0.127516 2.715949 2.093181 -0.634780 -1.775493 -20.552488 5.711802 -5.383428 -62.140811 -2.262810 23.044276 8.227972 -10.760495 8.131612 -6.933476 -7.983790 9.298221 22.282178 -0.147381 -1.394977 53.964547 5.847198 16.405884 -4.496689 9.284922 1.761552 5.727400 3.568678 3.718020 
0.541176 0.230107 0.990323 87.689183 3.722822 97.079770 6.081942 5.006796 -3.702121 3.914075 -1.749306 -8.973132 -1.751908 11.706775 -1.821152 0.000000 -0.000000 0.000000 -0.881839 -2.178155 -8.080988 -1.540634 1.446849 -0.555513 5.366076 -6.904973 -2.771241 0.000000 -0.000000 0.000000 0.903710 1.002036 -0.021957 3.221211 -1.902379 -2.319679 0.536528 1.872409 -6.423010 -2.328351 0.141641 2.502054 2.000895 -0.700070 -1.691677 -20.470793 5.682976 -5.252460 -62.205057 -2.328594 22.891012 8.219400 -10.629917 8.187603 -6.939693 -7.997025 9.150203 22.296463 -0.157081 -1.353454 53.984078 5.886659 16.356759 -4.502527 9.253208 1.787066 5.725090 3.540247 3.650355 
0.541059 0.230289 0.990329 87.711567 3.707387 97.068810 6.048682 5.001593 -3.679612 3.922225 -1.785169 -9.025907 -1.735526 11.705206 -1.796257 0.000000 -0.000000 0.000000 -0.906878 -2.208838 -8.077593 -1.545115 1.445939 -0.547567 5.373705 -6.890570 -2.773290 0.000000 -0.000000 0.000000 0.963251 1.008129 0.067223 3.187250 -1.897050 -2.418974 0.515751 1.881897 -6.406398 -2.336758 0.194625 2.550013 2.033798 -0.575595 -1.647932 -20.534692 5.678285 -5.250131 -62.243097 -2.284598 22.891375 8.260373 -10.501053 8.256706 -7.037414 -7.985648 9.110278 22.271257 -0.176071 -1.330482 53.986848 5.881705 16.360184 -4.521437 9.293559 1.809585 5.756345 3.518761 3.595447 
0.540902 0.230472 0.990260 87.719843 3.692659 97.097385 6.013875 4.978507 -3.696905 3.931364 -1.774227 -9.079385 -1.726625 11.688502 -1.761016 0.000000 -0.000000 0.000000 -0.921334 -2.242906 -8.140328 -1.550846 1.429495 -0.523553 5.362005 -6.870873 -2.765917 0.000000 -0.000000 0.000000 1.010168 1.037864 0.093522 3.151913 -1.901955 -2.465347 0.483487 1.871531 -6.423032 -2.327957 0.100082 2.517288 2.093355 -0.622954 -1.584550 -20.576837 5.680790 -5.217244 -62.333034 -2.264110 22.907778 8.352492 -10.414910 8.286119 -7.055696 -8.060547 9.084720 22.263160 -0.161377 -1.296488 53.976036 5.898190 16.358340 -4.522455 9.323873 1.831702 5.734903 3.560317 3.553298 
